<svg xmlns="http://www.w3.org/2000/svg" xmlns:xlink="http://www.w3.org/1999/xlink" width="500" zoomAndPan="magnify" viewBox="0 0 375 374.999991" height="500" preserveAspectRatio="xMidYMid meet" version="1.0"><defs><g/><clipPath id="63e2be607e"><path d="M 135.335938 127 L 196 127 L 196 188.878906 L 135.335938 188.878906 Z M 135.335938 127 " clip-rule="nonzero"/></clipPath><clipPath id="089d21299d"><path d="M 179 98.128906 L 239.585938 98.128906 L 239.585938 188.878906 L 179 188.878906 Z M 179 98.128906 " clip-rule="nonzero"/></clipPath><clipPath id="c83e70f771"><path d="M 135.335938 182 L 186 182 L 186 188.878906 L 135.335938 188.878906 Z M 135.335938 182 " clip-rule="nonzero"/></clipPath><clipPath id="2a72203914"><path d="M 179 111 L 239.585938 111 L 239.585938 188.878906 L 179 188.878906 Z M 179 111 " clip-rule="nonzero"/></clipPath><clipPath id="5a4d5d6dd8"><path d="M 179 98.128906 L 188 98.128906 L 188 113 L 179 113 Z M 179 98.128906 " clip-rule="nonzero"/></clipPath></defs><rect x="-37.5" width="450" fill="#ffffff" y="-37.499999" height="449.999989" fill-opacity="1"/><rect x="-37.5" width="450" fill="#ffffff" y="-37.499999" height="449.999989" fill-opacity="1"/><rect x="-37.5" width="450" fill="#000000" y="-37.499999" height="449.999989" fill-opacity="1"/><g clip-path="url(#63e2be607e)"><path fill="#38b6ff" d="M 187.460938 127.5625 L 170.566406 127.5625 L 135.335938 188.828125 L 186.019531 188.828125 L 195.910156 171.632812 L 188.898438 159.445312 L 187.460938 156.941406 L 186.019531 159.445312 L 177.574219 174.136719 L 160.679688 174.136719 Z M 187.460938 127.5625 " fill-opacity="1" fill-rule="evenodd"/></g><g clip-path="url(#089d21299d)"><path fill="#83858c" d="M 239.585938 188.828125 L 187.460938 98.179688 L 179.015625 112.871094 L 182.902344 119.632812 L 187.460938 127.5625 L 192.097656 135.621094 L 214.242188 174.136719 L 218.800781 182.066406 L 222.691406 188.828125 Z M 239.585938 188.828125 " fill-opacity="1" fill-rule="evenodd"/></g><path fill="#2493d4" d="M 187.460938 127.5625 L 174.339844 134.519531 L 147 182.066406 L 160.679688 174.136719 Z M 187.460938 127.5625 " fill-opacity="1" fill-rule="evenodd"/><g clip-path="url(#c83e70f771)"><path fill="#2493d4" d="M 147 182.066406 L 135.335938 188.828125 L 185.507812 188.828125 L 181.855469 182.066406 Z M 147 182.066406 " fill-opacity="1" fill-rule="evenodd"/></g><path fill="#2493d4" d="M 177.574219 174.136719 L 181.855469 182.066406 L 186.246094 174.136719 L 187.976562 171.007812 L 187.460938 156.941406 Z M 177.574219 174.136719 " fill-opacity="1" fill-rule="evenodd"/><g clip-path="url(#2a72203914)"><path fill="#68696e" d="M 192.097656 135.621094 L 214.242188 174.136719 L 218.800781 182.066406 L 222.691406 188.828125 L 239.585938 188.828125 L 227.921875 182.066406 L 187.460938 111.703125 L 179.015625 112.871094 L 182.902344 119.632812 L 187.460938 127.5625 Z M 192.097656 135.621094 " fill-opacity="1" fill-rule="evenodd"/></g><g clip-path="url(#5a4d5d6dd8)"><path fill="#8b8d93" d="M 187.460938 111.703125 L 187.460938 98.179688 L 179.015625 112.871094 Z M 187.460938 111.703125 " fill-opacity="1" fill-rule="evenodd"/></g><g fill="#68696e" fill-opacity="1"><g transform="translate(125.289417, 233.199041)"><g><path d="M 4.78125 0.140625 C 3.757812 0.046875 2.566406 0 1.203125 0 L -0.203125 0 L 7.546875 -21.6875 C 7.890625 -22.65625 8.0625 -23.21875 8.0625 -23.375 C 8.0625 -23.539062 8.054688 -23.644531 8.046875 -23.6875 L 8.0625 -23.71875 C 8.832031 -23.675781 9.648438 -23.65625 10.515625 -23.65625 C 11.222656 -23.65625 12.078125 -23.671875 13.078125 -23.703125 L 13.09375 -23.65625 C 13.070312 -23.613281 13.0625 -23.550781 13.0625 -23.46875 C 13.0625 -23.238281 13.238281 -22.640625 13.59375 -21.671875 L 21.5 0.046875 C 21.257812 0.0351562 20.976562 0.03125 20.65625 0.03125 C 20.65625 0.03125 20.347656 0.0195312 19.734375 0 C 19.429688 0 19.164062 0 18.9375 0 L 16.171875 0 L 14.5 -5.125 L 6.453125 -5.125 Z M 13.109375 -9.390625 L 10.421875 -17.671875 L 7.8125 -9.390625 Z M 13.109375 -9.390625 "/></g></g></g><g fill="#68696e" fill-opacity="1"><g transform="translate(155.651062, 233.199041)"><g><path d="M 6.53125 0 C 4.789062 0 3.632812 0.0351562 3.0625 0.109375 L 3.0625 -23.765625 C 3.34375 -23.691406 3.929688 -23.65625 4.828125 -23.65625 C 5.722656 -23.65625 6.765625 -23.679688 7.953125 -23.734375 L 7.953125 -4.265625 L 11.640625 -4.265625 C 12.703125 -4.265625 13.554688 -4.300781 14.203125 -4.375 C 14.117188 -1.601562 14.078125 -0.160156 14.078125 -0.046875 L 14.078125 0.125 C 12.910156 0.0390625 10.957031 0 8.21875 0 Z M 6.53125 0 "/></g></g></g><g fill="#68696e" fill-opacity="1"><g transform="translate(179.930238, 233.199041)"><g><path d="M 3.609375 -23.734375 C 4.796875 -23.679688 5.515625 -23.65625 5.765625 -23.65625 L 7.046875 -23.65625 C 7.671875 -23.65625 8.175781 -23.707031 8.5625 -23.8125 L 8.546875 0 L 3.609375 0 Z M 3.609375 -23.734375 "/></g></g></g><g fill="#68696e" fill-opacity="1"><g transform="translate(201.168175, 233.199041)"><g><path d="M 13.1875 0.078125 C 12.800781 0.0234375 12.175781 0 11.3125 0 L 9.359375 0 C 9.035156 0 8.742188 0.0078125 8.484375 0.03125 L 8.46875 0 C 8.519531 -0.0820312 8.546875 -0.175781 8.546875 -0.28125 C 8.546875 -0.382812 8.535156 -0.492188 8.515625 -0.609375 C 8.492188 -0.734375 8.441406 -0.945312 8.359375 -1.25 C 8.273438 -1.5625 8.144531 -2.007812 7.96875 -2.59375 L 7.21875 -4.984375 L 0.609375 -23.734375 C 1.335938 -23.679688 2.269531 -23.65625 3.40625 -23.65625 C 4.550781 -23.65625 5.285156 -23.707031 5.609375 -23.8125 L 10.953125 -7.625 L 15.65625 -23.734375 C 16.363281 -23.679688 17.242188 -23.65625 18.296875 -23.65625 C 19.710938 -23.65625 20.539062 -23.707031 20.78125 -23.8125 L 14.28125 -5.03125 C 14.28125 -5.03125 14.078125 -4.335938 13.671875 -2.953125 C 13.316406 -1.765625 13.140625 -0.992188 13.140625 -0.640625 C 13.140625 -0.296875 13.164062 -0.078125 13.21875 0.015625 Z M 13.1875 0.078125 "/></g></g></g><g fill="#68696e" fill-opacity="1"><g transform="translate(231.45868, 233.199041)"><g><path d="M 14.96875 -4.265625 C 15.695312 -4.265625 16.207031 -4.335938 16.5 -4.484375 L 16.5625 -4.46875 L 16.390625 0 L 3.0625 0 L 3.0625 -23.78125 C 3.382812 -23.757812 3.738281 -23.742188 4.125 -23.734375 L 5.375 -23.703125 C 6.207031 -23.671875 7.109375 -23.65625 8.078125 -23.65625 C 10.796875 -23.65625 13.484375 -23.707031 16.140625 -23.8125 C 16.003906 -22.757812 15.9375 -21.363281 15.9375 -19.625 C 15.9375 -19.4375 15.953125 -19.296875 15.984375 -19.203125 L 15.9375 -19.140625 C 15.320312 -19.316406 14.445312 -19.40625 13.3125 -19.40625 L 7.703125 -19.40625 L 7.703125 -14.875 L 11.921875 -14.875 C 13.222656 -14.875 14.003906 -14.910156 14.265625 -14.984375 L 14.328125 -10.59375 C 13.753906 -10.644531 13.015625 -10.671875 12.109375 -10.671875 L 7.703125 -10.671875 L 7.703125 -4.265625 Z M 14.96875 -4.265625 "/></g></g></g><g fill="#ffffff" fill-opacity="1"><g transform="translate(95.760248, 255.241522)"><g><path d="M 0.703125 -2.328125 C 0.648438 -1.785156 0.757812 -1.347656 1.03125 -1.015625 C 1.300781 -0.691406 1.71875 -0.53125 2.28125 -0.53125 C 2.664062 -0.53125 3.023438 -0.609375 3.359375 -0.765625 C 3.703125 -0.921875 3.976562 -1.117188 4.1875 -1.359375 L 4.640625 -1 C 4.304688 -0.632812 3.9375 -0.351562 3.53125 -0.15625 C 3.125 0.03125 2.660156 0.125 2.140625 0.125 C 1.734375 0.125 1.378906 0.0546875 1.078125 -0.078125 C 0.773438 -0.210938 0.523438 -0.398438 0.328125 -0.640625 C 0.128906 -0.878906 0 -1.160156 -0.0625 -1.484375 C -0.125 -1.816406 -0.109375 -2.1875 -0.015625 -2.59375 C 0.0546875 -2.988281 0.1875 -3.351562 0.375 -3.6875 C 0.570312 -4.019531 0.8125 -4.304688 1.09375 -4.546875 C 1.375 -4.796875 1.691406 -4.988281 2.046875 -5.125 C 2.410156 -5.257812 2.796875 -5.328125 3.203125 -5.328125 C 3.640625 -5.328125 4.007812 -5.25 4.3125 -5.09375 C 4.613281 -4.945312 4.847656 -4.742188 5.015625 -4.484375 C 5.179688 -4.222656 5.273438 -3.910156 5.296875 -3.546875 C 5.328125 -3.179688 5.296875 -2.773438 5.203125 -2.328125 Z M 4.53125 -2.984375 C 4.5625 -3.554688 4.441406 -3.984375 4.171875 -4.265625 C 3.910156 -4.546875 3.539062 -4.6875 3.0625 -4.6875 C 2.8125 -4.6875 2.570312 -4.644531 2.34375 -4.5625 C 2.125 -4.476562 1.914062 -4.363281 1.71875 -4.21875 C 1.53125 -4.070312 1.359375 -3.890625 1.203125 -3.671875 C 1.054688 -3.460938 0.941406 -3.234375 0.859375 -2.984375 Z M 4.53125 -2.984375 "/></g></g></g><g fill="#ffffff" fill-opacity="1"><g transform="translate(102.576541, 255.241522)"><g><path d="M 5.921875 -5.203125 L 2.578125 0 L 1.546875 0 L 0.375 -5.203125 L 1.296875 -5.203125 L 2.1875 -0.640625 L 5.015625 -5.203125 Z M 5.921875 -5.203125 "/></g></g></g><g fill="#ffffff" fill-opacity="1"><g transform="translate(109.392834, 255.241522)"><g><path d="M 0.703125 -2.328125 C 0.648438 -1.785156 0.757812 -1.347656 1.03125 -1.015625 C 1.300781 -0.691406 1.71875 -0.53125 2.28125 -0.53125 C 2.664062 -0.53125 3.023438 -0.609375 3.359375 -0.765625 C 3.703125 -0.921875 3.976562 -1.117188 4.1875 -1.359375 L 4.640625 -1 C 4.304688 -0.632812 3.9375 -0.351562 3.53125 -0.15625 C 3.125 0.03125 2.660156 0.125 2.140625 0.125 C 1.734375 0.125 1.378906 0.0546875 1.078125 -0.078125 C 0.773438 -0.210938 0.523438 -0.398438 0.328125 -0.640625 C 0.128906 -0.878906 0 -1.160156 -0.0625 -1.484375 C -0.125 -1.816406 -0.109375 -2.1875 -0.015625 -2.59375 C 0.0546875 -2.988281 0.1875 -3.351562 0.375 -3.6875 C 0.570312 -4.019531 0.8125 -4.304688 1.09375 -4.546875 C 1.375 -4.796875 1.691406 -4.988281 2.046875 -5.125 C 2.410156 -5.257812 2.796875 -5.328125 3.203125 -5.328125 C 3.640625 -5.328125 4.007812 -5.25 4.3125 -5.09375 C 4.613281 -4.945312 4.847656 -4.742188 5.015625 -4.484375 C 5.179688 -4.222656 5.273438 -3.910156 5.296875 -3.546875 C 5.328125 -3.179688 5.296875 -2.773438 5.203125 -2.328125 Z M 4.53125 -2.984375 C 4.5625 -3.554688 4.441406 -3.984375 4.171875 -4.265625 C 3.910156 -4.546875 3.539062 -4.6875 3.0625 -4.6875 C 2.8125 -4.6875 2.570312 -4.644531 2.34375 -4.5625 C 2.125 -4.476562 1.914062 -4.363281 1.71875 -4.21875 C 1.53125 -4.070312 1.359375 -3.890625 1.203125 -3.671875 C 1.054688 -3.460938 0.941406 -3.234375 0.859375 -2.984375 Z M 4.53125 -2.984375 "/></g></g></g><g fill="#ffffff" fill-opacity="1"><g transform="translate(116.209128, 255.241522)"><g><path d="M 5.3125 -4.46875 C 5.0625 -4.613281 4.75 -4.6875 4.375 -4.6875 C 4.050781 -4.6875 3.753906 -4.617188 3.484375 -4.484375 C 3.222656 -4.347656 2.984375 -4.171875 2.765625 -3.953125 C 2.546875 -3.734375 2.359375 -3.484375 2.203125 -3.203125 C 2.054688 -2.921875 1.953125 -2.628906 1.890625 -2.328125 L 1.53125 -0.65625 L 2.703125 -0.65625 L 2.578125 0 L -0.546875 0 L -0.40625 -0.65625 L 0.765625 -0.65625 L 1.59375 -4.546875 L 0.40625 -4.546875 L 0.546875 -5.203125 L 2.484375 -5.203125 L 2.21875 -3.890625 C 2.78125 -4.847656 3.546875 -5.328125 4.515625 -5.328125 C 4.785156 -5.328125 5.015625 -5.3125 5.203125 -5.28125 C 5.390625 -5.25 5.554688 -5.1875 5.703125 -5.09375 Z M 5.3125 -4.46875 "/></g></g></g><g fill="#ffffff" fill-opacity="1"><g transform="translate(123.02542, 255.241522)"><g><path d="M 5.921875 -5.203125 L 1.71875 1.3125 C 1.5 1.675781 1.242188 1.914062 0.953125 2.03125 C 0.660156 2.144531 0.351562 2.203125 0.03125 2.203125 C -0.320312 2.203125 -0.660156 2.140625 -0.984375 2.015625 L -0.703125 1.34375 C -0.546875 1.425781 -0.382812 1.484375 -0.21875 1.515625 C -0.0625 1.546875 0.0703125 1.5625 0.1875 1.5625 C 0.4375 1.5625 0.617188 1.5 0.734375 1.375 C 0.859375 1.25 0.972656 1.101562 1.078125 0.9375 L 1.5625 0.15625 L 0.375 -5.203125 L 1.28125 -5.203125 L 2.1875 -0.65625 L 5 -5.203125 Z M 5.921875 -5.203125 "/></g></g></g><g fill="#ffffff" fill-opacity="1"><g transform="translate(129.841712, 255.241522)"><g><path d="M 5.046875 -1.65625 C 4.878906 -1.113281 4.578125 -0.679688 4.140625 -0.359375 C 3.703125 -0.0351562 3.203125 0.125 2.640625 0.125 C 2.335938 0.125 2.070312 0.078125 1.84375 -0.015625 C 1.613281 -0.117188 1.425781 -0.257812 1.28125 -0.4375 C 1.144531 -0.613281 1.050781 -0.828125 1 -1.078125 C 0.957031 -1.335938 0.96875 -1.613281 1.03125 -1.90625 L 1.59375 -4.546875 L 0.40625 -4.546875 L 0.546875 -5.203125 L 1.71875 -5.203125 L 2.171875 -7.28125 L 2.9375 -7.28125 L 2.484375 -5.203125 L 4.71875 -5.203125 L 4.578125 -4.546875 L 2.359375 -4.546875 L 1.796875 -1.90625 C 1.753906 -1.71875 1.742188 -1.539062 1.765625 -1.375 C 1.796875 -1.207031 1.851562 -1.0625 1.9375 -0.9375 C 2.019531 -0.8125 2.128906 -0.710938 2.265625 -0.640625 C 2.410156 -0.566406 2.582031 -0.53125 2.78125 -0.53125 C 3.15625 -0.53125 3.492188 -0.644531 3.796875 -0.875 C 4.109375 -1.113281 4.328125 -1.421875 4.453125 -1.796875 Z M 5.046875 -1.65625 "/></g></g></g><g fill="#ffffff" fill-opacity="1"><g transform="translate(136.658005, 255.241522)"><g><path d="M 4.375 0 L 3.609375 0 L 4.296875 -3.21875 C 4.390625 -3.675781 4.363281 -4.035156 4.21875 -4.296875 C 4.070312 -4.554688 3.769531 -4.6875 3.3125 -4.6875 C 3.03125 -4.6875 2.757812 -4.617188 2.5 -4.484375 C 2.25 -4.359375 2.019531 -4.1875 1.8125 -3.96875 C 1.613281 -3.75 1.441406 -3.5 1.296875 -3.21875 C 1.148438 -2.9375 1.046875 -2.640625 0.984375 -2.328125 L 0.484375 0 L -0.28125 0 L 1.265625 -7.28125 L 2.03125 -7.28125 L 1.3125 -3.890625 C 1.882812 -4.847656 2.644531 -5.328125 3.59375 -5.328125 C 4.875 -5.328125 5.359375 -4.625 5.046875 -3.21875 Z M 4.375 0 "/></g></g></g><g fill="#ffffff" fill-opacity="1"><g transform="translate(143.474297, 255.241522)"><g><path d="M 3.890625 -6.25 L 2.859375 -6.25 L 3.078125 -7.28125 L 4.109375 -7.28125 Z M 3.609375 0 L 0.484375 0 L 0.625 -0.65625 L 1.8125 -0.65625 L 2.625 -4.546875 L 1.453125 -4.546875 L 1.59375 -5.203125 L 3.53125 -5.203125 L 2.578125 -0.65625 L 3.75 -0.65625 Z M 3.609375 0 "/></g></g></g><g fill="#ffffff" fill-opacity="1"><g transform="translate(150.290592, 255.241522)"><g><path d="M 4.375 0 L 3.609375 0 L 4.296875 -3.21875 C 4.390625 -3.675781 4.363281 -4.035156 4.21875 -4.296875 C 4.070312 -4.554688 3.769531 -4.6875 3.3125 -4.6875 C 3.03125 -4.6875 2.757812 -4.617188 2.5 -4.484375 C 2.25 -4.359375 2.019531 -4.1875 1.8125 -3.96875 C 1.613281 -3.75 1.441406 -3.5 1.296875 -3.21875 C 1.148438 -2.9375 1.046875 -2.640625 0.984375 -2.328125 L 0.484375 0 L -0.28125 0 L 0.828125 -5.203125 L 1.59375 -5.203125 L 1.3125 -3.890625 C 1.882812 -4.847656 2.644531 -5.328125 3.59375 -5.328125 C 4.875 -5.328125 5.359375 -4.625 5.046875 -3.21875 Z M 4.375 0 "/></g></g></g><g fill="#ffffff" fill-opacity="1"><g transform="translate(157.106887, 255.241522)"><g><path d="M 4.390625 -0.0625 C 4.316406 0.300781 4.1875 0.617188 4 0.890625 C 3.820312 1.171875 3.597656 1.410156 3.328125 1.609375 C 3.066406 1.804688 2.773438 1.953125 2.453125 2.046875 C 2.128906 2.148438 1.785156 2.203125 1.421875 2.203125 C 0.898438 2.203125 0.476562 2.101562 0.15625 1.90625 C -0.15625 1.71875 -0.398438 1.441406 -0.578125 1.078125 L 0.015625 0.671875 C 0.128906 0.910156 0.316406 1.109375 0.578125 1.265625 C 0.847656 1.429688 1.175781 1.515625 1.5625 1.515625 C 2.09375 1.515625 2.539062 1.378906 2.90625 1.109375 C 3.269531 0.847656 3.503906 0.46875 3.609375 -0.03125 L 3.734375 -0.59375 C 3.191406 -0.1875 2.628906 0.015625 2.046875 0.015625 C 1.234375 0.015625 0.640625 -0.21875 0.265625 -0.6875 C -0.0976562 -1.15625 -0.191406 -1.789062 -0.015625 -2.59375 C 0.0664062 -2.988281 0.203125 -3.351562 0.390625 -3.6875 C 0.585938 -4.019531 0.820312 -4.304688 1.09375 -4.546875 C 1.375 -4.796875 1.691406 -4.988281 2.046875 -5.125 C 2.398438 -5.257812 2.78125 -5.328125 3.1875 -5.328125 C 3.46875 -5.328125 3.726562 -5.273438 3.96875 -5.171875 C 4.21875 -5.078125 4.429688 -4.929688 4.609375 -4.734375 L 4.71875 -5.203125 L 5.484375 -5.203125 Z M 4.46875 -4 C 4.289062 -4.238281 4.082031 -4.410156 3.84375 -4.515625 C 3.601562 -4.628906 3.335938 -4.6875 3.046875 -4.6875 C 2.734375 -4.6875 2.453125 -4.628906 2.203125 -4.515625 C 1.953125 -4.410156 1.726562 -4.265625 1.53125 -4.078125 C 1.34375 -3.890625 1.179688 -3.664062 1.046875 -3.40625 C 0.910156 -3.15625 0.8125 -2.882812 0.75 -2.59375 C 0.625 -2 0.675781 -1.523438 0.90625 -1.171875 C 1.132812 -0.816406 1.5625 -0.640625 2.1875 -0.640625 C 2.476562 -0.640625 2.765625 -0.691406 3.046875 -0.796875 C 3.335938 -0.910156 3.617188 -1.09375 3.890625 -1.34375 Z M 4.46875 -4 "/></g></g></g><g fill="#ffffff" fill-opacity="1"><g transform="translate(163.923183, 255.241522)"><g/></g></g><g fill="#ffffff" fill-opacity="1"><g transform="translate(170.739478, 255.241522)"><g><path d="M -0.265625 -1.40625 C -0.191406 -1.738281 -0.0507812 -2.015625 0.15625 -2.234375 C 0.363281 -2.453125 0.613281 -2.625 0.90625 -2.75 C 1.195312 -2.882812 1.519531 -2.976562 1.875 -3.03125 C 2.238281 -3.09375 2.597656 -3.125 2.953125 -3.125 C 3.097656 -3.125 3.222656 -3.117188 3.328125 -3.109375 C 3.429688 -3.109375 3.53125 -3.101562 3.625 -3.09375 C 3.726562 -3.09375 3.828125 -3.085938 3.921875 -3.078125 C 4.023438 -3.066406 4.132812 -3.050781 4.25 -3.03125 L 4.328125 -3.40625 C 4.390625 -3.65625 4.378906 -3.863281 4.296875 -4.03125 C 4.222656 -4.195312 4.113281 -4.328125 3.96875 -4.421875 C 3.832031 -4.515625 3.679688 -4.582031 3.515625 -4.625 C 3.347656 -4.664062 3.203125 -4.6875 3.078125 -4.6875 C 2.679688 -4.6875 2.3125 -4.632812 1.96875 -4.53125 C 1.625 -4.425781 1.289062 -4.285156 0.96875 -4.109375 L 0.75 -4.6875 C 1.101562 -4.875 1.488281 -5.023438 1.90625 -5.140625 C 2.320312 -5.265625 2.765625 -5.328125 3.234375 -5.328125 C 3.503906 -5.328125 3.769531 -5.289062 4.03125 -5.21875 C 4.289062 -5.144531 4.507812 -5.03125 4.6875 -4.875 C 4.875 -4.726562 5.003906 -4.53125 5.078125 -4.28125 C 5.160156 -4.039062 5.164062 -3.75 5.09375 -3.40625 L 4.375 0 L 3.609375 0 L 3.796875 -0.875 C 3.617188 -0.707031 3.429688 -0.554688 3.234375 -0.421875 C 3.046875 -0.296875 2.847656 -0.191406 2.640625 -0.109375 C 2.441406 -0.0351562 2.242188 0.0195312 2.046875 0.0625 C 1.847656 0.101562 1.664062 0.125 1.5 0.125 C 0.8125 0.125 0.316406 -0.00390625 0.015625 -0.265625 C -0.273438 -0.535156 -0.367188 -0.914062 -0.265625 -1.40625 Z M 1.640625 -0.53125 C 1.953125 -0.53125 2.25 -0.578125 2.53125 -0.671875 C 2.8125 -0.765625 3.050781 -0.878906 3.25 -1.015625 C 3.457031 -1.160156 3.628906 -1.3125 3.765625 -1.46875 C 3.898438 -1.632812 3.984375 -1.78125 4.015625 -1.90625 L 4.109375 -2.40625 C 3.867188 -2.4375 3.632812 -2.453125 3.40625 -2.453125 C 3.175781 -2.460938 2.976562 -2.46875 2.8125 -2.46875 C 2.539062 -2.46875 2.269531 -2.445312 2 -2.40625 C 1.738281 -2.375 1.503906 -2.316406 1.296875 -2.234375 C 1.097656 -2.148438 0.925781 -2.039062 0.78125 -1.90625 C 0.632812 -1.769531 0.539062 -1.601562 0.5 -1.40625 C 0.445312 -1.1875 0.507812 -0.984375 0.6875 -0.796875 C 0.863281 -0.617188 1.179688 -0.53125 1.640625 -0.53125 Z M 1.640625 -0.53125 "/></g></g></g><g fill="#ffffff" fill-opacity="1"><g transform="translate(177.555773, 255.241522)"><g><path d="M 5.046875 -1.65625 C 4.878906 -1.113281 4.578125 -0.679688 4.140625 -0.359375 C 3.703125 -0.0351562 3.203125 0.125 2.640625 0.125 C 2.335938 0.125 2.070312 0.078125 1.84375 -0.015625 C 1.613281 -0.117188 1.425781 -0.257812 1.28125 -0.4375 C 1.144531 -0.613281 1.050781 -0.828125 1 -1.078125 C 0.957031 -1.335938 0.96875 -1.613281 1.03125 -1.90625 L 1.59375 -4.546875 L 0.40625 -4.546875 L 0.546875 -5.203125 L 1.71875 -5.203125 L 2.171875 -7.28125 L 2.9375 -7.28125 L 2.484375 -5.203125 L 4.71875 -5.203125 L 4.578125 -4.546875 L 2.359375 -4.546875 L 1.796875 -1.90625 C 1.753906 -1.71875 1.742188 -1.539062 1.765625 -1.375 C 1.796875 -1.207031 1.851562 -1.0625 1.9375 -0.9375 C 2.019531 -0.8125 2.128906 -0.710938 2.265625 -0.640625 C 2.410156 -0.566406 2.582031 -0.53125 2.78125 -0.53125 C 3.15625 -0.53125 3.492188 -0.644531 3.796875 -0.875 C 4.109375 -1.113281 4.328125 -1.421875 4.453125 -1.796875 Z M 5.046875 -1.65625 "/></g></g></g><g fill="#ffffff" fill-opacity="1"><g transform="translate(184.372068, 255.241522)"><g/></g></g><g fill="#ffffff" fill-opacity="1"><g transform="translate(191.188363, 255.241522)"><g><path d="M 5.625 -4.546875 L 3.390625 -4.546875 L 2.578125 -0.65625 L 3.75 -0.65625 L 3.609375 0 L 0.484375 0 L 0.625 -0.65625 L 1.8125 -0.65625 L 2.625 -4.546875 L 1.453125 -4.546875 L 1.59375 -5.203125 L 2.765625 -5.203125 C 2.921875 -5.921875 3.222656 -6.46875 3.671875 -6.84375 C 4.117188 -7.21875 4.71875 -7.40625 5.46875 -7.40625 C 5.644531 -7.40625 5.789062 -7.398438 5.90625 -7.390625 C 6.03125 -7.378906 6.128906 -7.367188 6.203125 -7.359375 L 6.078125 -6.703125 C 5.972656 -6.710938 5.859375 -6.722656 5.734375 -6.734375 C 5.617188 -6.742188 5.484375 -6.75 5.328125 -6.75 C 4.835938 -6.75 4.441406 -6.625 4.140625 -6.375 C 3.847656 -6.132812 3.644531 -5.742188 3.53125 -5.203125 L 5.75 -5.203125 Z M 5.625 -4.546875 "/></g></g></g><g fill="#ffffff" fill-opacity="1"><g transform="translate(198.004653, 255.241522)"><g><path d="M 3.890625 -6.25 L 2.859375 -6.25 L 3.078125 -7.28125 L 4.109375 -7.28125 Z M 3.609375 0 L 0.484375 0 L 0.625 -0.65625 L 1.8125 -0.65625 L 2.625 -4.546875 L 1.453125 -4.546875 L 1.59375 -5.203125 L 3.53125 -5.203125 L 2.578125 -0.65625 L 3.75 -0.65625 Z M 3.609375 0 "/></g></g></g><g fill="#ffffff" fill-opacity="1"><g transform="translate(204.820948, 255.241522)"><g><path d="M 4.375 0 L 3.609375 0 L 4.296875 -3.21875 C 4.390625 -3.675781 4.363281 -4.035156 4.21875 -4.296875 C 4.070312 -4.554688 3.769531 -4.6875 3.3125 -4.6875 C 3.03125 -4.6875 2.757812 -4.617188 2.5 -4.484375 C 2.25 -4.359375 2.019531 -4.1875 1.8125 -3.96875 C 1.613281 -3.75 1.441406 -3.5 1.296875 -3.21875 C 1.148438 -2.9375 1.046875 -2.640625 0.984375 -2.328125 L 0.484375 0 L -0.28125 0 L 0.828125 -5.203125 L 1.59375 -5.203125 L 1.3125 -3.890625 C 1.882812 -4.847656 2.644531 -5.328125 3.59375 -5.328125 C 4.875 -5.328125 5.359375 -4.625 5.046875 -3.21875 Z M 4.375 0 "/></g></g></g><g fill="#ffffff" fill-opacity="1"><g transform="translate(211.637243, 255.241522)"><g><path d="M 4.390625 -0.0625 C 4.316406 0.300781 4.1875 0.617188 4 0.890625 C 3.820312 1.171875 3.597656 1.410156 3.328125 1.609375 C 3.066406 1.804688 2.773438 1.953125 2.453125 2.046875 C 2.128906 2.148438 1.785156 2.203125 1.421875 2.203125 C 0.898438 2.203125 0.476562 2.101562 0.15625 1.90625 C -0.15625 1.71875 -0.398438 1.441406 -0.578125 1.078125 L 0.015625 0.671875 C 0.128906 0.910156 0.316406 1.109375 0.578125 1.265625 C 0.847656 1.429688 1.175781 1.515625 1.5625 1.515625 C 2.09375 1.515625 2.539062 1.378906 2.90625 1.109375 C 3.269531 0.847656 3.503906 0.46875 3.609375 -0.03125 L 3.734375 -0.59375 C 3.191406 -0.1875 2.628906 0.015625 2.046875 0.015625 C 1.234375 0.015625 0.640625 -0.21875 0.265625 -0.6875 C -0.0976562 -1.15625 -0.191406 -1.789062 -0.015625 -2.59375 C 0.0664062 -2.988281 0.203125 -3.351562 0.390625 -3.6875 C 0.585938 -4.019531 0.820312 -4.304688 1.09375 -4.546875 C 1.375 -4.796875 1.691406 -4.988281 2.046875 -5.125 C 2.398438 -5.257812 2.78125 -5.328125 3.1875 -5.328125 C 3.46875 -5.328125 3.726562 -5.273438 3.96875 -5.171875 C 4.21875 -5.078125 4.429688 -4.929688 4.609375 -4.734375 L 4.71875 -5.203125 L 5.484375 -5.203125 Z M 4.46875 -4 C 4.289062 -4.238281 4.082031 -4.410156 3.84375 -4.515625 C 3.601562 -4.628906 3.335938 -4.6875 3.046875 -4.6875 C 2.734375 -4.6875 2.453125 -4.628906 2.203125 -4.515625 C 1.953125 -4.410156 1.726562 -4.265625 1.53125 -4.078125 C 1.34375 -3.890625 1.179688 -3.664062 1.046875 -3.40625 C 0.910156 -3.15625 0.8125 -2.882812 0.75 -2.59375 C 0.625 -2 0.675781 -1.523438 0.90625 -1.171875 C 1.132812 -0.816406 1.5625 -0.640625 2.1875 -0.640625 C 2.476562 -0.640625 2.765625 -0.691406 3.046875 -0.796875 C 3.335938 -0.910156 3.617188 -1.09375 3.890625 -1.34375 Z M 4.46875 -4 "/></g></g></g><g fill="#ffffff" fill-opacity="1"><g transform="translate(218.453539, 255.241522)"><g><path d="M 0.703125 -2.328125 C 0.648438 -1.785156 0.757812 -1.347656 1.03125 -1.015625 C 1.300781 -0.691406 1.71875 -0.53125 2.28125 -0.53125 C 2.664062 -0.53125 3.023438 -0.609375 3.359375 -0.765625 C 3.703125 -0.921875 3.976562 -1.117188 4.1875 -1.359375 L 4.640625 -1 C 4.304688 -0.632812 3.9375 -0.351562 3.53125 -0.15625 C 3.125 0.03125 2.660156 0.125 2.140625 0.125 C 1.734375 0.125 1.378906 0.0546875 1.078125 -0.078125 C 0.773438 -0.210938 0.523438 -0.398438 0.328125 -0.640625 C 0.128906 -0.878906 0 -1.160156 -0.0625 -1.484375 C -0.125 -1.816406 -0.109375 -2.1875 -0.015625 -2.59375 C 0.0546875 -2.988281 0.1875 -3.351562 0.375 -3.6875 C 0.570312 -4.019531 0.8125 -4.304688 1.09375 -4.546875 C 1.375 -4.796875 1.691406 -4.988281 2.046875 -5.125 C 2.410156 -5.257812 2.796875 -5.328125 3.203125 -5.328125 C 3.640625 -5.328125 4.007812 -5.25 4.3125 -5.09375 C 4.613281 -4.945312 4.847656 -4.742188 5.015625 -4.484375 C 5.179688 -4.222656 5.273438 -3.910156 5.296875 -3.546875 C 5.328125 -3.179688 5.296875 -2.773438 5.203125 -2.328125 Z M 4.53125 -2.984375 C 4.5625 -3.554688 4.441406 -3.984375 4.171875 -4.265625 C 3.910156 -4.546875 3.539062 -4.6875 3.0625 -4.6875 C 2.8125 -4.6875 2.570312 -4.644531 2.34375 -4.5625 C 2.125 -4.476562 1.914062 -4.363281 1.71875 -4.21875 C 1.53125 -4.070312 1.359375 -3.890625 1.203125 -3.671875 C 1.054688 -3.460938 0.941406 -3.234375 0.859375 -2.984375 Z M 4.53125 -2.984375 "/></g></g></g><g fill="#ffffff" fill-opacity="1"><g transform="translate(225.269834, 255.241522)"><g><path d="M 5.3125 -4.46875 C 5.0625 -4.613281 4.75 -4.6875 4.375 -4.6875 C 4.050781 -4.6875 3.753906 -4.617188 3.484375 -4.484375 C 3.222656 -4.347656 2.984375 -4.171875 2.765625 -3.953125 C 2.546875 -3.734375 2.359375 -3.484375 2.203125 -3.203125 C 2.054688 -2.921875 1.953125 -2.628906 1.890625 -2.328125 L 1.53125 -0.65625 L 2.703125 -0.65625 L 2.578125 0 L -0.546875 0 L -0.40625 -0.65625 L 0.765625 -0.65625 L 1.59375 -4.546875 L 0.40625 -4.546875 L 0.546875 -5.203125 L 2.484375 -5.203125 L 2.21875 -3.890625 C 2.78125 -4.847656 3.546875 -5.328125 4.515625 -5.328125 C 4.785156 -5.328125 5.015625 -5.3125 5.203125 -5.28125 C 5.390625 -5.25 5.554688 -5.1875 5.703125 -5.09375 Z M 5.3125 -4.46875 "/></g></g></g><g fill="#ffffff" fill-opacity="1"><g transform="translate(232.086129, 255.241522)"><g><path d="M 5.046875 -1.65625 C 4.878906 -1.113281 4.578125 -0.679688 4.140625 -0.359375 C 3.703125 -0.0351562 3.203125 0.125 2.640625 0.125 C 2.335938 0.125 2.070312 0.078125 1.84375 -0.015625 C 1.613281 -0.117188 1.425781 -0.257812 1.28125 -0.4375 C 1.144531 -0.613281 1.050781 -0.828125 1 -1.078125 C 0.957031 -1.335938 0.96875 -1.613281 1.03125 -1.90625 L 1.59375 -4.546875 L 0.40625 -4.546875 L 0.546875 -5.203125 L 1.71875 -5.203125 L 2.171875 -7.28125 L 2.9375 -7.28125 L 2.484375 -5.203125 L 4.71875 -5.203125 L 4.578125 -4.546875 L 2.359375 -4.546875 L 1.796875 -1.90625 C 1.753906 -1.71875 1.742188 -1.539062 1.765625 -1.375 C 1.796875 -1.207031 1.851562 -1.0625 1.9375 -0.9375 C 2.019531 -0.8125 2.128906 -0.710938 2.265625 -0.640625 C 2.410156 -0.566406 2.582031 -0.53125 2.78125 -0.53125 C 3.15625 -0.53125 3.492188 -0.644531 3.796875 -0.875 C 4.109375 -1.113281 4.328125 -1.421875 4.453125 -1.796875 Z M 5.046875 -1.65625 "/></g></g></g><g fill="#ffffff" fill-opacity="1"><g transform="translate(238.902424, 255.241522)"><g><path d="M 3.890625 -6.25 L 2.859375 -6.25 L 3.078125 -7.28125 L 4.109375 -7.28125 Z M 3.609375 0 L 0.484375 0 L 0.625 -0.65625 L 1.8125 -0.65625 L 2.625 -4.546875 L 1.453125 -4.546875 L 1.59375 -5.203125 L 3.53125 -5.203125 L 2.578125 -0.65625 L 3.75 -0.65625 Z M 3.609375 0 "/></g></g></g><g fill="#ffffff" fill-opacity="1"><g transform="translate(245.718719, 255.241522)"><g><path d="M 5.203125 -2.59375 C 5.109375 -2.1875 4.960938 -1.816406 4.765625 -1.484375 C 4.578125 -1.160156 4.34375 -0.878906 4.0625 -0.640625 C 3.78125 -0.398438 3.460938 -0.210938 3.109375 -0.078125 C 2.753906 0.0546875 2.378906 0.125 1.984375 0.125 C 1.703125 0.125 1.441406 0.078125 1.203125 -0.015625 C 0.972656 -0.117188 0.765625 -0.269531 0.578125 -0.46875 L 0.046875 2.078125 L -0.703125 2.078125 L 0.828125 -5.203125 L 1.59375 -5.203125 L 1.484375 -4.71875 C 2.046875 -5.125 2.597656 -5.328125 3.140625 -5.328125 C 3.546875 -5.328125 3.894531 -5.257812 4.1875 -5.125 C 4.476562 -5 4.710938 -4.8125 4.890625 -4.5625 C 5.078125 -4.320312 5.195312 -4.03125 5.25 -3.6875 C 5.300781 -3.351562 5.285156 -2.988281 5.203125 -2.59375 Z M 4.4375 -2.59375 C 4.5 -2.882812 4.515625 -3.15625 4.484375 -3.40625 C 4.460938 -3.664062 4.390625 -3.890625 4.265625 -4.078125 C 4.140625 -4.265625 3.972656 -4.410156 3.765625 -4.515625 C 3.554688 -4.628906 3.300781 -4.6875 3 -4.6875 C 2.707031 -4.6875 2.421875 -4.628906 2.140625 -4.515625 C 1.867188 -4.410156 1.601562 -4.238281 1.34375 -4 L 0.75 -1.203125 C 0.914062 -0.960938 1.113281 -0.789062 1.34375 -0.6875 C 1.570312 -0.582031 1.828125 -0.53125 2.109375 -0.53125 C 2.421875 -0.53125 2.703125 -0.582031 2.953125 -0.6875 C 3.210938 -0.789062 3.441406 -0.9375 3.640625 -1.125 C 3.847656 -1.3125 4.015625 -1.53125 4.140625 -1.78125 C 4.273438 -2.03125 4.375 -2.300781 4.4375 -2.59375 Z M 4.4375 -2.59375 "/></g></g></g><g fill="#ffffff" fill-opacity="1"><g transform="translate(252.535015, 255.241522)"><g><path d="M 4.8125 -1.4375 C 4.75 -1.132812 4.617188 -0.878906 4.421875 -0.671875 C 4.234375 -0.472656 4.003906 -0.3125 3.734375 -0.1875 C 3.472656 -0.0703125 3.1875 0.00390625 2.875 0.046875 C 2.5625 0.0976562 2.265625 0.125 1.984375 0.125 C 1.515625 0.125 1.0625 0.0546875 0.625 -0.078125 C 0.1875 -0.210938 -0.179688 -0.394531 -0.484375 -0.625 L 0 -1.28125 C 0.332031 -1.039062 0.671875 -0.851562 1.015625 -0.71875 C 1.359375 -0.59375 1.726562 -0.53125 2.125 -0.53125 C 3.28125 -0.53125 3.921875 -0.828125 4.046875 -1.421875 C 4.078125 -1.566406 4.050781 -1.679688 3.96875 -1.765625 C 3.894531 -1.859375 3.785156 -1.929688 3.640625 -1.984375 C 3.492188 -2.046875 3.320312 -2.09375 3.125 -2.125 C 2.925781 -2.164062 2.710938 -2.203125 2.484375 -2.234375 C 2.210938 -2.273438 1.9375 -2.320312 1.65625 -2.375 C 1.382812 -2.425781 1.140625 -2.507812 0.921875 -2.625 C 0.710938 -2.738281 0.554688 -2.882812 0.453125 -3.0625 C 0.347656 -3.25 0.328125 -3.5 0.390625 -3.8125 C 0.453125 -4.070312 0.566406 -4.296875 0.734375 -4.484375 C 0.910156 -4.671875 1.117188 -4.828125 1.359375 -4.953125 C 1.609375 -5.085938 1.890625 -5.179688 2.203125 -5.234375 C 2.515625 -5.296875 2.832031 -5.328125 3.15625 -5.328125 C 3.613281 -5.328125 4.007812 -5.273438 4.34375 -5.171875 C 4.6875 -5.066406 4.984375 -4.914062 5.234375 -4.71875 L 4.796875 -4.109375 C 4.546875 -4.316406 4.273438 -4.460938 3.984375 -4.546875 C 3.691406 -4.640625 3.367188 -4.6875 3.015625 -4.6875 C 2.847656 -4.6875 2.664062 -4.671875 2.46875 -4.640625 C 2.269531 -4.609375 2.078125 -4.554688 1.890625 -4.484375 C 1.710938 -4.421875 1.554688 -4.332031 1.421875 -4.21875 C 1.285156 -4.113281 1.195312 -3.976562 1.15625 -3.8125 C 1.125 -3.664062 1.144531 -3.546875 1.21875 -3.453125 C 1.300781 -3.367188 1.414062 -3.296875 1.5625 -3.234375 C 1.707031 -3.179688 1.878906 -3.140625 2.078125 -3.109375 C 2.273438 -3.078125 2.484375 -3.046875 2.703125 -3.015625 C 2.984375 -2.972656 3.257812 -2.921875 3.53125 -2.859375 C 3.8125 -2.804688 4.054688 -2.722656 4.265625 -2.609375 C 4.484375 -2.503906 4.644531 -2.359375 4.75 -2.171875 C 4.863281 -1.992188 4.882812 -1.75 4.8125 -1.4375 Z M 4.8125 -1.4375 "/></g></g></g><g fill="#ffffff" fill-opacity="1"><g transform="translate(259.35131, 255.241522)"><g><path d="M 2.578125 0 L 1.53125 0 L 1.75 -1.03125 L 2.796875 -1.03125 Z M 2.578125 0 "/></g></g></g><g fill="#ffffff" fill-opacity="1"><g transform="translate(266.167605, 255.241522)"><g><path d="M 2.578125 0 L 1.53125 0 L 1.75 -1.03125 L 2.796875 -1.03125 Z M 2.578125 0 "/></g></g></g><g fill="#ffffff" fill-opacity="1"><g transform="translate(272.9839, 255.241522)"><g><path d="M 2.578125 0 L 1.53125 0 L 1.75 -1.03125 L 2.796875 -1.03125 Z M 2.578125 0 "/></g></g></g></svg>